<svg class="diagram-root" style="background: #f5f6f6" xmlns="http://www.w3.org/2000/svg" xmlns:xlink="http://www.w3.org/1999/xlink"><style>.diagram-root { font-family: "Helvetica Neue", sans-serif; font-size: 12px; } .t { overflow: visible; } .t-bg { y: 40; fill: #fff;   } .th { fill: #005aa0;   } .tht { fill: #fff; font-size: 14px;  } .tf { fill: #323c46; overflow: visible; } .tf.pk { fill: #005aa0; font-weight: bold; } .tf.fk { font-weight: bold; } .ty { fill: #adb1b5; font-weight: normal; text-anchor: end; } .r { fill: transparent; stroke: #c3c3c3; stroke-width: 1; } .l { stroke: 1; } .i { fill: #c2c7ce; stroke: #c2c7ce; } .i.ix { fill: #afb3b6; stroke: #000; } .fa { fill: transparent; overflow: visible; } .fa .bg.hover { fill: #f7f7f7; } .c { cy: 12; r: 4; stroke: #d2d2dc; fill: #d2d2dc; } .hr { fill: transparent; stroke: #323c46; stroke-opacity: 0.035; stroke-width: 13; } .dc { stroke: #fa5a3c; fill: #fa5a3c; } .x { stroke: white; stroke-width: 1; } .hl .th { fill: #1b9bff; } .hl .tht {  } .fhl .bg { fill: #e7f4ff; } .fhls .bg {  } .r.hl { stroke: #1b9bff; } .dim { opacity: 0.25; }</style><g class="drawing-wrapper" transform="translate(2, 18) scale(1,1)"><g class="rs"><path d="M 161.38 87 m -1, 0 a 1,1 0 1,0 2,0 a 1,1 0 1,0 -2,0 M 161.38 87 m -0.5, 0 a 0.5,0.5 0 1,0 1,0 a 0.5,0.5 0 1,0 -1,0  M161.38 87 L161.38 87 173.38 87 M167.38 93 L167.38 93 167.38 81 M173.38 87 Q 208.29 87, 243.19 183 T 313 279 M 325 279 m -1, 0 a 1,1 0 1,0 2,0 a 1,1 0 1,0 -2,0 M 325 279 m -0.5, 0 a 0.5,0.5 0 1,0 1,0 a 0.5,0.5 0 1,0 -1,0  M325 279 L325 279 313 279 M319 285 L319 285 319 273" id="h1168633520" class="r"></path><path d="M 165.38 479 m -1, 0 a 1,1 0 1,0 2,0 a 1,1 0 1,0 -2,0 M 165.38 479 m -0.5, 0 a 0.5,0.5 0 1,0 1,0 a 0.5,0.5 0 1,0 -1,0  M165.38 479 L165.38 479 177.38 479 M171.38 485 L171.38 485 171.38 473 M177.38 479 Q 211.29 479, 245.19 379 T 313 279 M 325 279 m -1, 0 a 1,1 0 1,0 2,0 a 1,1 0 1,0 -2,0 M 325 279 m -0.5, 0 a 0.5,0.5 0 1,0 1,0 a 0.5,0.5 0 1,0 -1,0  M325 279 L325 279 313 279 M319 285 L319 285 319 273" id="h221257298" class="r"></path><path d="M 746.38 447 m -1, 0 a 1,1 0 1,0 2,0 a 1,1 0 1,0 -2,0 M 746.38 447 m -0.5, 0 a 0.5,0.5 0 1,0 1,0 a 0.5,0.5 0 1,0 -1,0  M746.38 447 L746.38 447 758.38 447 M 746.38 453 m -1, 0 a 1,1 0 1,0 2,0 a 1,1 0 1,0 -2,0 M 746.38 453 m -0.5, 0 a 0.5,0.5 0 1,0 1,0 a 0.5,0.5 0 1,0 -1,0  M746.38 453 L746.38 453 753.38 447 746.38 441 M 746.38 441 m -1, 0 a 1,1 0 1,0 2,0 a 1,1 0 1,0 -2,0 M 746.38 441 m -0.5, 0 a 0.5,0.5 0 1,0 1,0 a 0.5,0.5 0 1,0 -1,0  M758.38 447 Q 783.04 447, 807.69 379.5 T 857 312 M 869 312 m -1, 0 a 1,1 0 1,0 2,0 a 1,1 0 1,0 -2,0 M 869 312 m -0.5, 0 a 0.5,0.5 0 1,0 1,0 a 0.5,0.5 0 1,0 -1,0  M869 312 L869 312 857 312 M863 318 L863 318 863 306" id="h2896958380" class="r"></path><path d="M 615 472 m -1, 0 a 1,1 0 1,0 2,0 a 1,1 0 1,0 -2,0 M 615 472 m -0.5, 0 a 0.5,0.5 0 1,0 1,0 a 0.5,0.5 0 1,0 -1,0  M615 472 L615 472 603 472 M609 478 L609 478 609 466 M603 472 Q 569.84 472, 536.68 375.5 T 470.37 279 M 458.37 279 m -1, 0 a 1,1 0 1,0 2,0 a 1,1 0 1,0 -2,0 M 458.37 279 m -0.5, 0 a 0.5,0.5 0 1,0 1,0 a 0.5,0.5 0 1,0 -1,0  M458.37 279 L458.37 279 470.37 279 M464.37 285 L464.37 285 464.37 273" id="h2793124118" class="r"></path><path d="M 616 93 m -1, 0 a 1,1 0 1,0 2,0 a 1,1 0 1,0 -2,0 M 616 93 m -0.5, 0 a 0.5,0.5 0 1,0 1,0 a 0.5,0.5 0 1,0 -1,0  M616 93 L616 93 604 93 M610 99 L610 99 610 87 M604 93 Q 570.59 93, 537.18 186 T 470.37 279 M 458.37 279 m -1, 0 a 1,1 0 1,0 2,0 a 1,1 0 1,0 -2,0 M 458.37 279 m -0.5, 0 a 0.5,0.5 0 1,0 1,0 a 0.5,0.5 0 1,0 -1,0  M458.37 279 L458.37 279 470.37 279 M464.37 285 L464.37 285 464.37 273" id="h3892048477" class="r"></path><path d="M 748.61 118 m -1, 0 a 1,1 0 1,0 2,0 a 1,1 0 1,0 -2,0 M 748.61 118 m -0.5, 0 a 0.5,0.5 0 1,0 1,0 a 0.5,0.5 0 1,0 -1,0  M748.61 118 L748.61 118 760.61 118 M 748.61 124 m -1, 0 a 1,1 0 1,0 2,0 a 1,1 0 1,0 -2,0 M 748.61 124 m -0.5, 0 a 0.5,0.5 0 1,0 1,0 a 0.5,0.5 0 1,0 -1,0  M748.61 124 L748.61 124 755.61 118 748.61 112 M 748.61 112 m -1, 0 a 1,1 0 1,0 2,0 a 1,1 0 1,0 -2,0 M 748.61 112 m -0.5, 0 a 0.5,0.5 0 1,0 1,0 a 0.5,0.5 0 1,0 -1,0  M760.61 118 Q 784.71 118, 808.81 215 T 857 312 M 869 312 m -1, 0 a 1,1 0 1,0 2,0 a 1,1 0 1,0 -2,0 M 869 312 m -0.5, 0 a 0.5,0.5 0 1,0 1,0 a 0.5,0.5 0 1,0 -1,0  M869 312 L869 312 857 312 M863 318 L863 318 863 306" id="h3737276011" class="r"></path></g><g class="hrs"></g><g class="ts"><svg width="131.38" height="150" x="30" y="30" id="h3517680912" class="t"><rect height="40" width="131.38" class="th"></rect><text x="13" y="25" class="tht">Titles</text><rect height="110" width="131.38" class="t-bg"></rect><text x="13" y="61" class="tf fk">emp_no<tspan x="118.38" class="ty">Int</tspan></text><text x="13" y="86" class="tf">title<tspan x="118.38" class="ty">String</tspan></text><text x="13" y="111" class="tf">from_date<tspan x="118.38" class="ty">String</tspan></text><text x="13" y="136" class="tf">to_date<tspan x="118.38" class="ty">String</tspan></text></svg><svg width="131.38" height="150" x="34" y="422" id="h3858243705" class="t"><rect height="40" width="131.38" class="th"></rect><text x="13" y="25" class="tht">Salaries</text><rect height="110" width="131.38" class="t-bg"></rect><text x="13" y="61" class="tf fk">emp_no<tspan x="118.38" class="ty">Int</tspan></text><text x="13" y="86" class="tf">salary<tspan x="118.38" class="ty">Int</tspan></text><text x="13" y="111" class="tf">from_date<tspan x="118.38" class="ty">String</tspan></text><text x="13" y="136" class="tf">to_date<tspan x="118.38" class="ty">String</tspan></text></svg><svg width="133.37" height="200" x="325" y="222" id="h3299212598" class="t"><rect height="40" width="133.37" class="th"></rect><text x="13" y="25" class="tht">Employees</text><rect height="160" width="133.37" class="t-bg"></rect><text x="13" y="61" class="tf pk">emp_no<tspan x="120.37" class="ty">Int</tspan></text><path d="M7,14A2,2 0 0,1 5,12A2,2 0 0,1 7,10A2,2 0 0,1 9,12A2,2 0 0,1 7,14M12.65,10C11.83,7.67 9.61,6 7, 6A6, 6 0 0, 0 1, 12A6, 6 0 0, 0 7, 18C9.61, 18 11.83, 16.33 12.65, 14H17V18H21V14H23V10H12.65Z" class="i pk" transform="translate(87.028203125, 48) scale(0.65)"></path><text x="13" y="86" class="tf">birth_date<tspan x="120.37" class="ty">String</tspan></text><text x="13" y="111" class="tf">first_name<tspan x="120.37" class="ty">String</tspan></text><text x="13" y="136" class="tf">last_name<tspan x="120.37" class="ty">String</tspan></text><text x="13" y="161" class="tf">Gender<tspan x="120.37" class="ty">String</tspan></text><text x="13" y="186" class="tf">hire_date<tspan x="120.37" class="ty">String</tspan></text></svg><svg width="137.39" height="100" x="869" y="255" id="h3708248841" class="t"><rect height="40" width="137.39" class="th"></rect><text x="13" y="25" class="tht">Departments</text><rect height="60" width="137.39" class="t-bg"></rect><text x="13" y="61" class="tf pk">dept_no<tspan x="124.38999999999999" class="ty">Int</tspan></text><path d="M7,14A2,2 0 0,1 5,12A2,2 0 0,1 7,10A2,2 0 0,1 9,12A2,2 0 0,1 7,14M12.65,10C11.83,7.67 9.61,6 7, 6A6, 6 0 0, 0 1, 12A6, 6 0 0, 0 7, 18C9.61, 18 11.83, 16.33 12.65, 14H17V18H21V14H23V10H12.65Z" class="i pk" transform="translate(91.04820312499999, 48) scale(0.65)"></path><text x="13" y="86" class="tf">dept_name<tspan x="124.38999999999999" class="ty">String</tspan></text></svg><svg width="131.38" height="150" x="615" y="390" id="h2390897942" class="t"><rect height="40" width="131.38" class="th"></rect><text x="13" y="25" class="tht">Dept_Managers</text><rect height="110" width="131.38" class="t-bg"></rect><text x="13" y="61" class="tf fk">dept_no<tspan x="118.38" class="ty">String</tspan></text><text x="13" y="86" class="tf fk">emp_no<tspan x="118.38" class="ty">Int</tspan></text><text x="13" y="111" class="tf">from_date<tspan x="118.38" class="ty">String</tspan></text><text x="13" y="136" class="tf">to_date<tspan x="118.38" class="ty">String</tspan></text></svg><svg width="132.61" height="150" x="616" y="36" id="h1000793988" class="t"><rect height="40" width="132.61" class="th"></rect><text x="13" y="25" class="tht">Dept_Employees</text><rect height="110" width="132.61" class="t-bg"></rect><text x="13" y="61" class="tf fk">emp_no<tspan x="119.61000000000001" class="ty">Int</tspan></text><text x="13" y="86" class="tf fk">dept_no<tspan x="119.61000000000001" class="ty">String</tspan></text><text x="13" y="111" class="tf">from_date<tspan x="119.61000000000001" class="ty">String</tspan></text><text x="13" y="136" class="tf">to_date<tspan x="119.61000000000001" class="ty">String</tspan></text></svg></g></g><text class="qdbd-link" x="10" y="20">www.quickdatabasediagrams.com</text></svg>